# xmcd
#
# Track frame offsets:
# 150
# 13020
# 24767
# 35240
# 46737
# 56665
# 67960
# 79630
# 90380
# 101857
# 114345
# 126745
# 138165
# 149970
# 161832
# 173745
# 184822
# 195572
# 207662
# 217307
#
# Disc length: 3042 seconds
#
#
# Revision: 0
# Processed by: cddbd v1.4PL0 Copyright (c) Steve Scherf et al.
# Submitted via: FreeRIP 2.11 
#
DISCID=2d0be014
DTITLE=Patsy Cline - 20 Golden Hits
DYEAR=1989
DGENRE=Country
TTITLE0=I Fall To Pieces
TTITLE1=Walking After Midnight
TTITLE2=I Love You Honey
TTITLE3=Just Out Of Reach
TTITLE4=I'm Blue Again
TTITLE5=Hungry For Love
TTITLE6=I've Loved And Lost Again
TTITLE7=Stop, Look And Listen
TTITLE8=The Heart You Break May Be Your Own
TTITLE9=Fingerprints
TTITLE10=Crazy
TTITLE11=In Care Of The Blues
TTITLE12=Today, Tomorrow And Forever
TTITLE13=Never No More
TTITLE14=Let The Teardrops Fall
TTITLE15=I Can't Forget You
TTITLE16=Gotta Lot Of Rhythm
TTITLE17=If I Could Stay Asleep
TTITLE18=I'm Moving Along
TTITLE19=Don't Ever Leave Me
EXTD=Deluxe DCD-7887
EXTT0=
EXTT1=
EXTT2=
EXTT3=
EXTT4=
EXTT5=
EXTT6=
EXTT7=
EXTT8=
EXTT9=
EXTT10=
EXTT11=
EXTT12=
EXTT13=
EXTT14=
EXTT15=
EXTT16=
EXTT17=
EXTT18=
EXTT19=
PLAYORDER=
